<?xml version="1.0" standalone="no"?><!DOCTYPE svg PUBLIC "-//W3C//DTD SVG 1.1//EN" "http://www.w3.org/Graphics/SVG/1.1/DTD/svg11.dtd"><svg t="1709086606187" class="icon" viewBox="0 0 1024 1024" version="1.1" xmlns="http://www.w3.org/2000/svg" p-id="6166" xmlns:xlink="http://www.w3.org/1999/xlink" width="32" height="32"><path d="M810.666667 597.333333H213.333333v-42.666666h597.333334v42.666666zM725.333333 704H298.666667v-42.666667h426.666666v42.666667zM640 810.666667H384v-42.666667h256v42.666667z" fill="#000000" p-id="6167"></path><path d="M490.666667 597.333333V213.333333h42.666666v384h-42.666666z" fill="#000000" p-id="6168"></path><path d="M512 128C299.925333 128 128 299.925333 128 512s171.925333 384 384 384 384-171.925333 384-384S724.074667 128 512 128zM85.333333 512C85.333333 276.352 276.352 85.333333 512 85.333333s426.666667 191.018667 426.666667 426.666667-191.018667 426.666667-426.666667 426.666667S85.333333 747.648 85.333333 512z" fill="#000000" p-id="6169"></path></svg>